# xmcd
#
# Track frame offsets:
#	150
#	17038
#	36766
#	48242
#	69168
#	84694
#	99620
#	115520
#	138461
#	153086
#
# Disc length: 2240 seconds
#
# Revision: 1
# Processed by: cddbd v1.5.1PL2 Copyright (c) Steve Scherf et al.
# Submitted via: audiograbber 1.83.01
#
DISCID=7308be0a
DTITLE=Ajda Pekkan and Bes Yil Önce On Yil Sonra - Ajda Pekkan and Bes Yil Önce On 
DTITLE=Yil Sonra
DYEAR=1984
DGENRE=Pop
TTITLE0=Ajda Pekkan - O Benim Dünyam
TTITLE1=Ajda Pekkan and Bes Yil Önce On Yil Sonra - Elimde Olsa
TTITLE2=Ajda Pekkan - Bir Masal Anlatsam
TTITLE3=Bes Yil Önce On Yil Sonra - Ah Fatma
TTITLE4=Ajda Pekkan and Bes Yil Önce On Yil Sonra - Sarkilar
TTITLE5=Bes Yil Önce On Yil Sonra - Ucan Hali
TTITLE6=Ajda Pekkan and Bes Yil Önce On Yil Sonra - Onlar Gibi Olsak
TTITLE7=Ajda Pekkan - Bir Tek Sey
TTITLE8=Ajda Pekkan - Yolculuk
TTITLE9=Ajda Pekkan - Bir Gece Sahnede
EXTD=
EXTT0=
EXTT1=
EXTT2=
EXTT3=
EXTT4=
EXTT5=
EXTT6=
EXTT7=
EXTT8=
EXTT9=
PLAYORDER=
